<?xml version="1.0" standalone="no"?>
<!DOCTYPE svg PUBLIC "-//W3C//DTD SVG 20010904//EN"
 "http://www.w3.org/TR/2001/REC-SVG-20010904/DTD/svg10.dtd">
<svg version="1.0" xmlns="http://www.w3.org/2000/svg"
 width="512.000000pt" height="512.000000pt" viewBox="0 0 512.000000 512.000000"
 preserveAspectRatio="xMidYMid meet">
<metadata>
Created by potrace 1.16, written by Peter Selinger 2001-2019
</metadata>
<g transform="translate(0.000000,512.000000) scale(0.100000,-0.100000)"
fill="#000000" stroke="none">
<path d="M2613 4965 c-110 -31 -201 -97 -249 -184 -26 -46 -27 -46 -134 -78
-552 -164 -1031 -563 -1303 -1083 -164 -312 -249 -656 -264 -1061 l-6 -167
-71 -33 c-109 -53 -236 -140 -293 -202 -75 -83 -96 -145 -91 -272 3 -88 8
-110 40 -183 92 -210 244 -420 462 -637 281 -278 545 -469 866 -624 257 -124
487 -194 737 -226 171 -22 838 -16 998 8 343 53 626 155 868 313 145 94 308
259 365 371 66 128 84 209 86 398 l3 160 45 95 c92 192 156 396 199 630 27
146 38 514 20 671 -82 710 -456 1339 -1036 1741 -237 164 -528 295 -785 353
-106 24 -386 30 -457 10z m542 -250 c243 -43 384 -106 497 -220 98 -100 138
-223 138 -426 0 -112 -20 -318 -36 -373 -4 -13 -2 -17 7 -14 37 13 72 -35 83
-115 l7 -48 30 26 c57 47 117 43 141 -11 10 -21 9 -35 -5 -74 -25 -69 -22 -94
15 -127 106 -95 128 -148 105 -254 -7 -35 -7 -36 62 -82 72 -50 115 -101 131
-158 19 -66 20 -66 -193 -75 l-192 -9 -3 -28 c-2 -15 10 -67 26 -115 59 -170
63 -244 22 -341 l-21 -48 124 -184 c150 -223 197 -302 236 -396 130 -316 44
-588 -263 -828 -152 -118 -320 -206 -528 -276 -522 -174 -1106 -136 -1603 105
-746 363 -1215 1114 -1215 1946 0 729 361 1403 965 1803 125 83 347 190 490
236 126 41 335 86 470 101 114 13 404 4 510 -15z"/>
<path d="M3569 3850 c-15 -22 -32 -60 -39 -85 -14 -48 -20 -54 -40 -30 -16 19
-40 19 -68 -1 -20 -14 -24 -13 -57 11 -110 85 -236 3 -222 -144 6 -68 21 -101
81 -175 25 -30 42 -57 39 -60 -4 -3 -22 -6 -42 -6 -59 0 -232 -46 -327 -87
-263 -114 -475 -323 -634 -625 -49 -93 -281 -619 -465 -1053 -54 -126 -113
-266 -131 -310 -30 -69 -32 -81 -20 -94 18 -17 41 -3 52 31 12 38 322 762 479
1118 161 366 247 503 419 667 144 138 292 222 486 275 73 20 108 23 245 23
119 -1 169 -4 193 -15 33 -15 33 -15 -45 -16 -202 -4 -381 -140 -383 -292 0
-37 13 -45 91 -56 63 -9 132 -55 162 -108 25 -43 42 -98 32 -98 -3 0 -41 20
-84 45 -85 49 -130 56 -182 30 -46 -24 -69 -70 -69 -138 0 -113 34 -153 229
-261 131 -73 134 -76 163 -133 16 -32 40 -69 53 -83 27 -29 124 -219 188 -370
98 -233 155 -441 165 -609 7 -102 8 -106 31 -109 l24 -4 -6 129 c-9 213 -82
451 -243 788 -21 44 -40 82 -41 85 -2 3 32 5 75 5 93 0 180 30 241 82 42 36
51 62 28 82 -10 8 -19 4 -35 -18 -57 -78 -247 -118 -331 -70 -47 26 -84 75
-113 150 -16 44 -22 92 -29 248 -8 159 -13 202 -30 240 -39 89 -129 157 -232
176 -33 6 -37 10 -31 29 14 45 35 75 80 115 114 101 326 120 428 40 l26 -20 1
28 c0 15 4 37 8 48 7 17 11 15 37 -21 16 -22 38 -57 49 -77 18 -34 18 -38 3
-53 -17 -17 -25 -12 -72 51 -14 18 -15 11 -16 -86 0 -241 72 -480 215 -709 30
-48 35 -52 42 -35 4 11 8 63 7 115 -1 81 -5 107 -32 178 -19 48 -32 102 -32
128 0 41 -2 44 -26 44 -15 0 -44 -10 -65 -22 -31 -17 -42 -19 -51 -10 -20 20
2 43 83 89 137 76 134 74 133 118 -1 22 -5 51 -9 65 -5 18 0 33 16 54 20 25
27 28 65 22 43 -5 43 -5 50 29 12 66 -3 103 -67 164 -69 66 -80 100 -59 187
20 84 4 89 -69 19 -35 -34 -66 -55 -74 -52 -9 3 -17 30 -21 79 -8 84 -15 118
-25 118 -20 0 -42 -69 -56 -181 -9 -68 -18 -139 -21 -157 l-5 -32 -37 29 c-47
38 -125 68 -194 76 -90 11 -114 23 -176 90 -94 99 -115 196 -58 261 33 40 82
28 135 -33 44 -50 64 -51 82 -7 12 34 26 22 31 -26 2 -28 8 -36 26 -38 19 -3
26 5 46 50 13 29 32 79 42 111 10 31 23 57 29 57 21 0 38 -84 40 -204 2 -87 6
-120 16 -126 22 -14 37 8 49 68 6 31 13 67 16 79 3 16 0 21 -9 17 -11 -4 -15
11 -20 60 -7 76 -28 130 -59 156 -34 29 -51 24 -79 -20z m-284 -1143 l90 -52
8 -70 c4 -39 6 -98 5 -132 l-3 -62 -122 70 c-149 85 -168 108 -168 197 0 55 3
66 24 83 36 29 68 23 166 -34z"/>
<path d="M3506 3119 c-106 -30 -121 -167 -26 -232 74 -51 190 17 190 111 0 81
-85 144 -164 121z m82 -66 c12 -10 24 -30 28 -45 5 -22 0 -33 -24 -58 -37 -36
-65 -38 -97 -5 -68 67 21 169 93 108z"/>
<path d="M4016 2985 c7 -19 14 -46 14 -60 0 -23 4 -25 43 -26 23 0 74 -8 112
-19 39 -10 72 -16 74 -14 3 2 -15 23 -40 47 -46 44 -162 107 -197 107 -20 0
-20 -2 -6 -35z"/>
</g>
</svg>
